<svg xmlns="http://www.w3.org/2000/svg" width="78.672" height="15.552"><path data-name="パス 1" d="M6.789 0l-.036 1.938a6.4 6.4 0 01-.925.335 8.057 8.057 0 01-1.195.233V4.32h2.586v1.8H4.662V7.2l2.557 1.7v2.112L4.662 9.04v6.5H2.615v-5.167a10.307 10.307 0 01-1.158 1.668A12.631 12.631 0 010 13.5v-2.726a6.068 6.068 0 001.734-2.186 7.525 7.525 0 00.86-2.469H0V4.32h2.615V2.666L0 2.732V.918a35.562 35.562 0 004.371-.19A8.268 8.268 0 006.789 0zm6.272 0v6.5l-.036.779a8.18 8.18 0 001.231 3.46 8.013 8.013 0 002.5 2.367v2.4a10.744 10.744 0 01-4.633-4.932 10.839 10.839 0 01-4.837 4.961v-2.307A7.816 7.816 0 0011.072 6.5V0zM9.47 2.469a28.205 28.205 0 00.168 3.016 10.927 10.927 0 00.524 2.469H8.224a9.812 9.812 0 01-.473-2.418 33.233 33.233 0 01-.138-3.067zm7.19 0c0 1.02-.044 2.04-.138 3.067a9.47 9.47 0 01-.5 2.418H14.11a10.555 10.555 0 00.524-2.469 28.206 28.206 0 00.166-3.016z" fill="#40210f"/><path data-name="パス 2" d="M23.383 1.3v12.052h4.48V0h2.273v13.352h4.516V1.3h2.28v14.034H21.125V1.3z" fill="#40210f"/><path data-name="パス 3" d="M46.256 0a15.494 15.494 0 01-.313 3.242 11.379 11.379 0 01-.954 2.739h.372v9.564h-2.07V8.3a8.945 8.945 0 01-2.018 1.33V6.847a4.677 4.677 0 002.054-2.477A11.655 11.655 0 0044.056 0zm6.857 0l.423 1.457h4.5v1.9h-4.48v3.978h4.157v1.88h-4.158v4.291h4.48v1.828H46.853v-1.829h4.5v-4.29h-4.2v-1.88h4.2V3.358h-4.5v-1.9h4.422L50.867 0z" fill="#40210f"/><path data-name="パス 4" d="M68.91.277v1.909h-2.666a14.833 14.833 0 01-.291 1.858 12.6 12.6 0 01-.568 1.785h3.132v9.506h-5.558V9.47c-.262.27-.466.473-.619.612a4.877 4.877 0 00-.423.342V7.51a6.905 6.905 0 001.61-2.413 7.285 7.285 0 00.663-2.914h-2.273V.277zm-4.079 13.192h1.886V7.678h-1.886zM78.671.277v1.952h-1.136v4.429h1.136v1.916h-1.136v6.971h-2.113V8.574h-2.425a9.557 9.557 0 01-.881 4.371 5.828 5.828 0 01-2.666 2.608v-2.674a3.285 3.285 0 001.115-1.559 8.108 8.108 0 00.379-2.746H69.66V6.658h1.282V2.229h-1.3V.277zm-5.654 6.381h2.4V2.229h-2.4z" fill="#40210f"/></svg>