<svg xmlns="http://www.w3.org/2000/svg" width="28.473" height="23.536"><g fill="#fff" stroke="#fff" stroke-width=".5"><path d="M24.93 23.286H3.585a.484.484 0 01-.484-.484V12.69a.484.484 0 11.968 0v9.624h20.377V12.69a.484.484 0 11.968 0v10.112a.484.484 0 01-.484.484zm2.808-11.656a.481.481 0 01-.3-.1L14.258 1.365 1.072 11.529a.484.484 0 01-.591-.767L13.962.37a.485.485 0 01.591 0l13.481 10.392a.484.484 0 01-.3.868zM4.146 5.451a.484.484 0 01-.484-.484V1.314A.484.484 0 014.146.83h4.068a.484.484 0 01.484.484v1.123a.484.484 0 11-.968 0v-.639H4.625v3.167a.483.483 0 01-.479.486z"/><path d="M20.993 23.286h-5.512a.484.484 0 01-.484-.484v-8.743a.483.483 0 01.484-.484h5.512a.483.483 0 01.484.484v8.743a.484.484 0 01-.484.484zm-5.028-.968h4.549v-7.775H15.97z"/></g></svg>