<svg xmlns="http://www.w3.org/2000/svg" width="77.735" height="33.257"><path d="M38.873 33.238c-6.071 0-12.143-.041-18.214.019-2.461.024-4.3-.827-5.271-3.131-.25-.59-.658-.708-1.16-.927A22.828 22.828 0 01.1 10.73C-.967 3.54 6.771-1.814 14.2.579c1.667.537 3.179 1.382 4.935.279.39-.245 1.048-.083 1.583-.083h36.429c.357 0 .79-.128 1.059.026 2.044 1.17 3.873.146 5.828-.357a10.707 10.707 0 0111.108 3.028c2.959 3.156 3.176 6.994 1.711 10.807-2.585 6.725-6.511 12.372-13.691 14.981-.548.2-.659.6-.866 1.018a4.967 4.967 0 01-4.851 2.971c-6.192-.029-12.382-.011-18.572-.011z" fill="#ff909f"/><path d="M58.309 30.533c-.148-.917-.073-1.976-1.343-1.987-.968-.009-1.333.638-1.314 1.533.017.805-.591.579-1 .58q-15.791.015-31.582-.005c-.354 0-.949.253-1-.378-.081-1-.355-1.806-1.536-1.729-1.079.07-1.063 1.092-1.262 1.913a2.157 2.157 0 01-1.6-2.355q-.007-11.111 0-22.221a2.034 2.034 0 01.418-1.5c.28-.291.612-.691.953-.726.451-.046.341.515.427.83a1.157 1.157 0 001.3.96 1.142 1.142 0 001.205-1.087c-.006-1.085.616-1.039 1.371-1.038q15.523.016 31.047 0c.775 0 1.371-.016 1.323 1.068-.029.644.52 1.047 1.2 1.06a1.169 1.169 0 001.279-.99c.069-.3-.155-.786.381-.834.466-.042.725.347 1 .653a2.561 2.561 0 01.486 1.843q0 10.933.007 21.866a2.32 2.32 0 01-1.76 2.544z" fill="#fdfdfd"/><path d="M14.893 26.65a14.143 14.143 0 01-6.064-4.18c-3.022-3.333-5.549-6.962-6.122-11.572a6.62 6.62 0 013.285-6.954 8.822 8.822 0 018.681-.406c.349.159.613.322.574.769-.633 7.383.021 14.787-.354 22.343z" fill="#fefefe"/><path d="M62.72 26.577V9.738a17.339 17.339 0 00-.074-4.247c-.457-1.759.459-2.162 1.736-2.5a8.554 8.554 0 018.6 2c2.4 2.281 2.494 5.184 1.545 8.078a24.056 24.056 0 01-8.709 12.04 7.425 7.425 0 01-3.098 1.468z" fill="#fdfdfd"/><path d="M38.745 18.623h12.133c1.007 0 2.041.043 2.023 1.38-.016 1.239-1.024 1.273-1.947 1.273q-12.222.006-24.444.007c-.979 0-1.912-.2-1.863-1.376.048-1.146.994-1.29 1.965-1.287 4.045.012 8.086.003 12.133.003zm.117-11.755c3.985 0 7.971.005 11.956 0 1 0 2.064-.01 2.083 1.314.019 1.36-1.089 1.327-2.064 1.327H26.746c-.982 0-2.1.008-2.1-1.3 0-1.278 1.068-1.338 2.081-1.335 4.045.003 8.09-.006 12.135-.006zm-.211 8.496c-3.983 0-7.965-.01-11.947.007-1.012 0-2.07-.029-2.058-1.331.012-1.192 1.011-1.233 1.964-1.231q12.215.02 24.43 0c.962 0 1.9.053 1.86 1.31-.041 1.234-1 1.253-1.945 1.249-4.102-.012-8.203-.004-12.304-.004zm.193 9.206H50.79c.936 0 2.091-.194 2.114 1.224.021 1.368-1.048 1.321-2.04 1.32q-12.036-.013-24.071 0c-.983 0-2.1.058-2.14-1.24-.036-1.314 1.066-1.315 2.066-1.312 4.042.016 8.083.008 12.125.008zM22.036 8.801c.047 1.056-.027 2.187-1.393 2.164-1.275-.02-1.278-1.135-1.261-2.106v-.351c-.008-1 .094-2.067 1.383-1.988 1.377.085 1.294 1.268 1.271 2.281zm-2.649 10.658c.028-.732-.114-1.961 1.376-1.915 1.314.041 1.274 1.156 1.276 2.133 0 1.025.105 2.254-1.3 2.285-1.43.031-1.356-1.203-1.352-2.503zm2.652 5.822c-.005 1.024.061 2.221-1.4 2.163-1.483-.059-1.22-1.329-1.245-2.3s-.049-2.09 1.3-2.083c1.445.009 1.353 1.195 1.345 2.22zm-2.661-10.949c.05-1-.173-2.245 1.308-2.275 1.31-.027 1.382 1.036 1.353 2.039-.03 1.045.208 2.349-1.4 2.335-1.377-.012-1.2-1.19-1.261-2.099zm36.275-5.687c-.051-.972-.065-2.069 1.213-2.118 1.447-.055 1.368 1.129 1.349 2.146 0 .117-.007.234 0 .35.065.942-.047 1.946-1.2 1.945-1.526-.005-1.391-1.26-1.362-2.323zm2.558 5.717c-.045.842.257 2.1-1.294 2.079-1.356-.018-1.286-1.124-1.271-2.085.016-.982-.229-2.235 1.238-2.3 1.51-.059 1.32 1.184 1.327 2.306zm.004 5.423c-.035.8.2 1.714-.838 2.123a1.082 1.082 0 01-1.5-.553 3.9 3.9 0 01.143-3.4 1.067 1.067 0 011.433-.345c.989.452.724 1.375.762 2.175zm-.009 5.455c-.025.971.248 2.217-1.287 2.206-1.357-.01-1.288-1.115-1.271-2.084.017-.984-.234-2.241 1.225-2.3 1.479-.067 1.363 1.151 1.333 2.178z" fill="#ff909f"/></svg>