<svg xmlns="http://www.w3.org/2000/svg" width="47.65" height="47.494"><path d="M47.65 11.106a5.1 5.1 0 01-1.551 3.411q-8.28 8.231-16.549 16.472a9.3 9.3 0 01-5.923 2.583 10.6 10.6 0 00-6.748 3.243q-4.534 4.54-9.1 9.051c-2.062 2.041-4.615 2.168-6.486.347-1.829-1.781-1.723-4.405.32-6.466q4.454-4.494 8.967-8.93a10.707 10.707 0 003.387-6.852 10.4 10.4 0 013.321-6.681C22.464 12.21 27.566 7.06 32.709 1.953c2.64-2.622 5.235-2.6 7.9.041 1.815 1.8 3.6 3.623 5.434 5.4a5.147 5.147 0 011.607 3.712z" fill="#ff909f"/><path d="M9.169 41.526c-3.324-2.9-3.323-2.9-.4-5.809 1.261-1.257 2.53-2.506 3.779-3.775a11.663 11.663 0 003.519-7.195 9.623 9.623 0 013.184-6.322c4.072-3.9 8.043-7.9 11.982-11.935.841-.861 1.244-.752 2.012.041 2.642 2.727 5.349 5.391 8.073 8.037.644.625.662.989 0 1.636-4.444 4.368-8.84 8.785-13.265 13.172a6.454 6.454 0 01-4.109 1.917 14.021 14.021 0 00-9.448 4.768c-1.725 1.872-3.553 3.652-5.327 5.465z" fill="#fefefe"/><path d="M45.415 11.137a2.881 2.881 0 01-1.022 1.992c-.484.512-.8.693-1.4.083q-4.234-4.316-8.56-8.54c-.567-.555-.51-.856.032-1.386 1.37-1.34 2.827-1.458 4.21-.126 1.963 1.892 3.863 3.848 5.8 5.765a2.893 2.893 0 01.94 2.212z" fill="#fdfdfd"/><path d="M4.563 40.161c.883.909 1.892 1.833 2.74 2.886.28.347-2.167 2.3-2.91 2.253a2.178 2.178 0 01-2.191-2.137c-.076-.708 1.698-3.019 2.361-3.002z" fill="#fafafa"/><path d="M31.681 11.944a1.371 1.371 0 011.063.556c.68.658 1.3 1.382 2.021 1.994 1.174 1 1.125 1.839 0 2.91q-4.044 3.861-7.92 7.9c-1.092 1.139-1.878 1.055-2.927-.033-3.45-3.582-3.4-2.668-.1-6.013 2.163-2.189 4.353-4.351 6.539-6.516.378-.37.693-.852 1.324-.798z" fill="#ff909f"/></svg>