<svg xmlns="http://www.w3.org/2000/svg" width="23.763" height="22.517"><path d="M23.763 8.67a1.724 1.724 0 00-1.722-1.722H1.722A1.724 1.724 0 000 8.67v1.766a1.712 1.712 0 001.722 1.7h.209v8.658a1.724 1.724 0 001.722 1.722h16.481a1.712 1.712 0 001.7-1.722v-8.66h.209a1.712 1.712 0 001.722-1.7V8.668zm-9.583 1.81V8.603h7.861a.078.078 0 01.067.067v1.766c0 .02-.029.044-.067.044zm-12.458 0c-.038 0-.067-.024-.067-.044V8.67a.077.077 0 01.067-.067h7.864v1.877zm9.515-1.877h1.288v12.26h-1.288zm-1.651 3.531v8.728h-5.93a.078.078 0 01-.067-.067v-8.661zm10.595 8.661c0 .038-.023.067-.044.067h-5.953v-8.728h6zM5.01 4.68l.011.012a5.863 5.863 0 004.038 1.677h.134a.73.73 0 00-.037-1.46 4.377 4.377 0 01-3.1-1.25 1.212 1.212 0 01-.11-1.532 1.548 1.548 0 011.381-.634 3.3 3.3 0 012.266 1.346 3.367 3.367 0 01.566 2.606.73.73 0 101.432.283 4.833 4.833 0 00-.812-3.74A4.748 4.748 0 007.503.043h-.028a3.013 3.013 0 00-2.717 1.239 2.659 2.659 0 00.25 3.385zm7.906 1.629a.731.731 0 00.717-.872 3.354 3.354 0 012.839-3.974 1.565 1.565 0 011.4.639 1.248 1.248 0 01-.126 1.558 4.367 4.367 0 01-3.116 1.208.73.73 0 00-.037 1.46h.143a5.841 5.841 0 004.04-1.634l.011-.012.011-.011a2.713 2.713 0 00.267-3.411A3.031 3.031 0 0016.331.015h-.028a4.815 4.815 0 00-4.094 5.706.73.73 0 00.707.588z" fill="#fff"/></svg>