<svg xmlns="http://www.w3.org/2000/svg" width="70.77" height="38.039"><path d="M58.279 27.754c0 2.3.025 4.429-.007 6.56a3.427 3.427 0 01-3.805 3.716q-25.271.017-50.542 0c-2.609 0-3.915-1.345-3.917-3.975q-.015-15.035 0-30.071C.008 1.4 1.358.013 3.948.011q25.271-.024 50.541 0a3.481 3.481 0 013.787 3.757c.026 2.076.028 4.152-.006 6.227-.012.749.145 1.161.986 1.368 3.168.78 6.3 1.343 9.37-.331a1.3 1.3 0 011.983.481c.437.862-.07 1.47-.832 1.873a12.453 12.453 0 01-9.526.82c-1.622-.46-1.987-.155-2.045 1.557-.063 1.843.485 2.561 2.288 2.9 2.817.525 5.534.771 8.155-.664a1.27 1.27 0 011.964.5c.426.87-.1 1.44-.862 1.857-3.117 1.713-6.417 1.644-9.711.81-1.413-.358-1.884-.251-1.785 1.322.19 3.009-.579 2.375 2.55 3.136a10.7 10.7 0 007.65-.561c.826-.421 1.66-.581 2.145.382s-.166 1.513-.98 1.943a12.96 12.96 0 01-9.027.894c-.695-.142-1.384-.313-2.314-.528z" fill="#ff909f"/><path d="M55.719 24.252c-3.226-.819-6.209-1.351-9.227-.463a14.058 14.058 0 00-2.449 1.036 1.186 1.186 0 00-.616 1.772 1.214 1.214 0 001.824.478c3.048-1.694 6.188-1.233 9.358-.418.81.208 1.173.534 1.134 1.448-.083 1.953-.053 3.913-.015 5.868.02 1.054-.415 1.51-1.475 1.509q-11.427-.018-22.853.01c-.812 0-.992-.33-.99-1.06q.026-15.386 0-30.773c0-.772.26-1.031 1.024-1.029q11.427.028 22.853.008c.938 0 1.449.335 1.436 1.348-.026 2.067-.008 4.135-.008 6.311-2.629-.585-5.117-1.161-7.7-.778a11.328 11.328 0 00-3.86 1.284c-.743.41-1.235 1.022-.716 1.89a1.255 1.255 0 001.851.451c2.865-1.578 5.807-1.2 8.838-.546 1.385.3 1.772.9 1.593 2.15a2.351 2.351 0 000 .71c.253 1.518-.217 1.911-1.774 1.459a12.632 12.632 0 00-8.063.1c-.554.2-1.092.453-1.623.712-.776.378-1.3.962-.871 1.841a1.3 1.3 0 001.983.5c2.942-1.635 5.963-1.121 9.024-.456a1.437 1.437 0 011.341 1.808c-.091.871-.019 1.762-.019 2.83zm-27.863-5.061c0 4.974-.034 9.949.025 14.923.013 1.1-.294 1.391-1.394 1.384q-11.054-.071-22.11 0c-1.423.009-1.861-.544-1.839-1.9.061-3.73.049-7.462 0-11.192a2.555 2.555 0 01.874-2.006c5.649-5.594 11.3-11.182 16.875-16.853 1.014-1.032 2.1-.939 3.258-.885 1.4.066 3.25-.658 4.06.321.682.825.237 2.6.242 3.95.017 4.085.009 8.172.009 12.258z" fill="#fefefe"/><path d="M2.562 16.683c-.307-1.185.111-2.457 1.431-3.69a202.117 202.117 0 008.934-8.9 3.822 3.822 0 013.806-1.419z" fill="#f9f9f9"/><path d="M2.563 10.109c0-1.862.016-3.966-.007-6.07-.01-.954.387-1.416 1.366-1.409 2.113.017 4.226.005 6.176.005z" fill="#fbfbfb"/></svg>