<svg data-name="グループ 7" xmlns="http://www.w3.org/2000/svg" width="22.749" height="23.162"><path data-name="パス 7" d="M13.295 3.382a.765.765 0 00.767.77h.023a.766.766 0 00.769-.77V.769a.769.769 0 00-.541-.736.757.757 0 00-.228-.034h-.023a.752.752 0 00-.227.034.768.768 0 00-.54.736z" fill="#fff"/><rect data-name="長方形 15" width="1.299" height="3.898" rx=".65" transform="translate(4.692 .072)" fill="#fff"/><g data-name="グループ 6"><g data-name="グループ 5"><path data-name="パス 8" d="M19.448 4.768a1.867 1.867 0 00-1.862-1.864h-2.075v.478a1.427 1.427 0 01-1.425 1.426h-.023a1.425 1.425 0 01-1.423-1.426v-.478H6.821v.478a1.43 1.43 0 01-1.428 1.426h-.024a1.422 1.422 0 01-1.42-1.426v-.478h-2.08A1.871 1.871 0 00.002 4.768V18.54a1.872 1.872 0 001.867 1.865h10.427a5.652 5.652 0 01-.435-1.452H1.486V6.97h16.522v5.242a5.686 5.686 0 011.441.285z" fill="#fff"/></g></g><path data-name="長方形 16" fill="#fff" d="M3.128 8.796h3.327v3.327H3.128z"/><path data-name="長方形 17" fill="#fff" d="M3.128 13.799h3.327v3.327H3.128z"/><path data-name="長方形 18" fill="#fff" d="M8.146 13.799h3.327v3.327H8.146z"/><path data-name="長方形 19" fill="#fff" d="M8.146 8.796h3.327v3.327H8.146z"/><path data-name="長方形 20" fill="#fff" d="M13.165 8.796h3.327v3.327h-3.327z"/><path data-name="パス 9" d="M17.605 12.875a5.144 5.144 0 105.144 5.144 5.144 5.144 0 00-5.144-5.144zm0 9.162a4.018 4.018 0 114.019-4.019 4.023 4.023 0 01-4.019 4.02z" fill="#fff"/><path data-name="パス 10" d="M20.089 17.897h-2.245v-2.636a.4.4 0 00-.8 0v3.383a.4.4 0 00.547.374h2.503a.563.563 0 000-1.125z" fill="#fff"/></svg>