<svg xmlns="http://www.w3.org/2000/svg" width="21.547" height="18.981"><path d="M4.333 0a.86.86 0 01.86.86V2.8a.859.859 0 01-.859.859.859.859 0 01-.86-.859V.859A.859.859 0 014.333 0z" fill="#a8a8a8"/><path d="M20.267 2.122H18.6v.838a1.28 1.28 0 01-1.28 1.28h-.141a1.28 1.28 0 01-1.28-1.28v-.838H5.683v.838a1.28 1.28 0 01-1.28 1.28h-.141a1.28 1.28 0 01-1.28-1.28v-.838h-1.7a1.28 1.28 0 00-1.28 1.28v14.294a1.28 1.28 0 001.28 1.28h18.987a1.28 1.28 0 001.28-1.28V3.407a1.28 1.28 0 00-1.282-1.285zm-.427 14.72a.32.32 0 01-.32.32H2.026a.32.32 0 01-.32-.32V6.393a.32.32 0 01.32-.32H19.52a.32.32 0 01.32.32z" fill="#a8a8a8"/><path d="M17.25 0a.859.859 0 01.859.859V2.8a.859.859 0 01-.859.859.859.859 0 01-.859-.859V.859A.859.859 0 0117.25 0zM8.059 10.667a.29.29 0 01-.243.32H5.309a.29.29 0 01-.243-.32V8.612a.289.289 0 01.243-.32h2.507a.29.29 0 01.243.32zm4.166.016a.29.29 0 01-.243.32H9.475a.29.29 0 01-.243-.32V8.63a.29.29 0 01.243-.32h2.507a.289.289 0 01.243.32zm4.165 0a.29.29 0 01-.243.32H13.64a.29.29 0 01-.243-.32V8.63a.29.29 0 01.243-.32h2.507a.29.29 0 01.243.32zm-8.331 4.253a.29.29 0 01-.243.32H5.309a.289.289 0 01-.243-.32v-2.052a.289.289 0 01.243-.32h2.507a.29.29 0 01.243.32zm4.166.014a.29.29 0 01-.243.32H9.475a.29.29 0 01-.243-.32v-2.052a.29.29 0 01.243-.32h2.507a.289.289 0 01.243.32zm4.165 0a.29.29 0 01-.243.32H13.64a.29.29 0 01-.243-.32v-2.052a.29.29 0 01.243-.32h2.507a.289.289 0 01.243.32z" fill="#a8a8a8"/></svg>