<svg xmlns="http://www.w3.org/2000/svg" width="32.97" height="31.242"><g data-name="グループ 736" fill="#f196a0"><path data-name="パス 138" d="M32.97 12.029a2.392 2.392 0 00-2.389-2.389H2.386a2.392 2.392 0 00-2.389 2.389v2.45a2.376 2.376 0 002.389 2.357h.289v12.017a2.392 2.392 0 002.389 2.389h22.867a2.376 2.376 0 002.357-2.389V16.836h.289a2.376 2.376 0 002.389-2.357v-2.45zm-13.3 2.511v-2.6h10.906a.108.108 0 01.094.094v2.45c0 .028-.041.061-.094.061zm-17.285 0c-.053 0-.093-.033-.093-.061v-2.45a.108.108 0 01.093-.093h10.906v2.6zm13.2-2.6h1.788v17.01h-1.788zm-2.3 4.9v12.11H5.057a.108.108 0 01-.093-.094v-12.02zm14.7 12.017c0 .053-.033.094-.061.094h-8.26V16.836h8.321z"/><path data-name="パス 139" d="M6.947 6.489l.015.017a8.134 8.134 0 005.6 2.326h.186a1.013 1.013 0 00-.051-2.025 6.072 6.072 0 01-4.308-1.734 1.682 1.682 0 01-.153-2.126 2.148 2.148 0 011.915-.879 4.58 4.58 0 013.144 1.868 4.671 4.671 0 01.785 3.615 1.013 1.013 0 101.987.392 6.7 6.7 0 00-1.126-5.189 6.588 6.588 0 00-4.546-2.7h-.038a4.181 4.181 0 00-3.77 1.719 3.69 3.69 0 00.347 4.7z"/><path data-name="パス 140" d="M17.92 8.757a1.014 1.014 0 00.995-1.209 4.654 4.654 0 013.938-5.513 2.171 2.171 0 011.937.887 1.732 1.732 0 01-.175 2.162 6.059 6.059 0 01-4.323 1.675 1.013 1.013 0 00-.051 2.025h.2a8.1 8.1 0 005.606-2.268l.015-.016.016-.015a3.765 3.765 0 00.37-4.733A4.2 4.2 0 0022.655.025h-.038a6.68 6.68 0 00-5.681 7.917 1.013 1.013 0 00.984.815z"/></g></svg>