<svg xmlns="http://www.w3.org/2000/svg" width="45.292" height="18.429"><path d="M1.412 3.619v.007l-.005.007a7.8 7.8 0 00.72 9.806l.024.023.024.026a17.6 17.6 0 0012.179 4.913q.218 0 .435-.005a1.6 1.6 0 00-.04-3.2h-.041a14.379 14.379 0 01-10.28-3.982A4.59 4.59 0 014.02 5.47a5.561 5.561 0 014.99-2.256 11.249 11.249 0 019.485 13.3 1.6 1.6 0 103.137.619A14.446 14.446 0 009.396.033h-.061a8.766 8.766 0 00-7.923 3.586zM25.233 18.43a1.6 1.6 0 001.57-1.908 11.249 11.249 0 019.485-13.3 5.558 5.558 0 014.99 2.256 4.589 4.589 0 01-.407 5.744 14.379 14.379 0 01-10.281 3.982 1.6 1.6 0 00-.081 3.2c.145 0 .29.005.435.005a17.6 17.6 0 0012.179-4.913l.024-.026.025-.023a7.8 7.8 0 00.719-9.806l-.005-.007v-.007A8.77 8.77 0 0035.967.046h-.06a14.446 14.446 0 00-12.235 17.1 1.6 1.6 0 001.561 1.284z" fill="#f196a0"/></svg>