<svg xmlns="http://www.w3.org/2000/svg" width="42.148" height="34.755" viewBox="0 0 42.148 34.755"><g transform="translate(-388.072 -86.379)"><g transform="translate(388.378 86.656)"><path d="M423.65,115.069H391.907a.719.719,0,0,1-.72-.72V99.312a.72.72,0,1,1,1.44,0V113.63h30.3V99.312a.72.72,0,1,1,1.44,0V114.35A.72.72,0,0,1,423.65,115.069Z" transform="translate(-387.01 -80.841)" fill="#f196a0" stroke="#f196a0" stroke-width="0.5"/><path d="M429.194,103.55a.716.716,0,0,1-.439-.15L409.147,88.285,389.538,103.4a.72.72,0,0,1-.879-1.141L408.707,86.8a.721.721,0,0,1,.879,0l20.048,15.454a.72.72,0,0,1-.44,1.291Z" transform="translate(-388.378 -86.655)" fill="#f196a0" stroke="#f196a0" stroke-width="0.5"/><path d="M392.468,94.087a.719.719,0,0,1-.72-.72v-5.43a.719.719,0,0,1,.72-.72h6.057a.719.719,0,0,1,.72.72v1.67a.72.72,0,1,1-1.439,0v-.95h-4.618v4.71A.718.718,0,0,1,392.468,94.087Z" transform="translate(-386.737 -86.381)" fill="#f196a0" stroke="#f196a0" stroke-width="0.5"/></g><path d="M412,114.4h-8.2a.719.719,0,0,1-.72-.72v-13a.718.718,0,0,1,.72-.72H412a.718.718,0,0,1,.72.72v13A.719.719,0,0,1,412,114.4Zm-7.477-1.44h6.758V101.4h-6.758Z" transform="translate(7.163 6.482)" fill="#f196a0" stroke="#f196a0" stroke-width="0.5"/></g></svg>