<svg xmlns="http://www.w3.org/2000/svg" width="42.148" height="34.755"><g fill="#f196a0" stroke="#f196a0" stroke-width=".5"><path d="M36.946 34.505H5.203a.719.719 0 0 1-.72-.72V18.748a.72.72 0 1 1 1.44 0v14.318h30.3V18.748a.72.72 0 1 1 1.44 0v15.038a.72.72 0 0 1-.717.719ZM41.122 17.172a.716.716 0 0 1-.439-.15L21.075 1.907 1.466 17.022a.72.72 0 0 1-.879-1.141L20.635.422a.721.721 0 0 1 .879 0l20.048 15.454a.72.72 0 0 1-.44 1.291ZM6.037 7.983a.719.719 0 0 1-.72-.72v-5.43a.719.719 0 0 1 .72-.72h6.057a.719.719 0 0 1 .72.72v1.67a.72.72 0 1 1-1.439 0v-.95H6.757v4.71a.718.718 0 0 1-.72.72Z"/><path d="M31.091 34.503h-8.2a.719.719 0 0 1-.72-.72v-13a.718.718 0 0 1 .72-.72h8.2a.718.718 0 0 1 .72.72v13a.719.719 0 0 1-.72.72Zm-7.477-1.44h6.758v-11.56h-6.758Z"/></g></svg>