<svg id="contents" xmlns="http://www.w3.org/2000/svg" width="78.672" height="15.552" viewBox="0 0 78.672 15.552">
  <path id="パス_1" data-name="パス 1" d="M6.789,0,6.753,1.938a6.4,6.4,0,0,1-.925.335,8.057,8.057,0,0,1-1.195.233V4.32H7.219v1.8H4.662V7.2L7.219,8.9v2.112L4.662,9.04v6.5H2.615V10.373a10.307,10.307,0,0,1-1.158,1.668A12.631,12.631,0,0,1,0,13.5V10.774A6.068,6.068,0,0,0,1.734,8.588a7.525,7.525,0,0,0,.86-2.469H0V4.32H2.615V2.666L0,2.732V.918A35.562,35.562,0,0,0,4.371.728,8.268,8.268,0,0,0,6.789,0Zm6.272,0V6.5l-.036.779a8.18,8.18,0,0,0,1.231,3.46,8.013,8.013,0,0,0,2.5,2.367v2.4a10.744,10.744,0,0,1-4.633-4.932,10.839,10.839,0,0,1-4.837,4.961V13.228A7.816,7.816,0,0,0,11.072,6.5V0ZM9.47,2.469a28.205,28.205,0,0,0,.168,3.016,10.927,10.927,0,0,0,.524,2.469H8.224a9.812,9.812,0,0,1-.473-2.418c-.095-1.027-.138-2.047-.138-3.067Zm7.19,0c0,1.02-.044,2.04-.138,3.067a9.47,9.47,0,0,1-.5,2.418H14.11a10.555,10.555,0,0,0,.524-2.469A28.206,28.206,0,0,0,14.8,2.469Z" transform="translate(0 0)" fill="#40210f"/>
  <path id="パス_2" data-name="パス 2" d="M31.258,1.3V13.352h4.48V0h2.273V13.352h4.516V1.3h2.28V15.334H29V1.3Z" transform="translate(-7.875 0)" fill="#40210f"/>
  <path id="パス_3" data-name="パス 3" d="M61.643,0a15.494,15.494,0,0,1-.313,3.242,11.379,11.379,0,0,1-.954,2.739h.372v9.564H58.678V8.3A8.945,8.945,0,0,1,56.66,9.63V6.847a4.677,4.677,0,0,0,2.054-2.477A11.655,11.655,0,0,0,59.443,0ZM68.5,0l.423,1.457h4.5v1.9h-4.48V7.335H73.1V9.215H68.942v4.291h4.48v1.828H62.24V13.505h4.5V9.215h-4.2V7.335h4.2V3.358h-4.5v-1.9h4.422L66.254,0Z" transform="translate(-15.387 0)" fill="#40210f"/>
  <path id="パス_4" data-name="パス 4" d="M91.993.38V2.289H89.327a14.833,14.833,0,0,1-.291,1.858,12.6,12.6,0,0,1-.568,1.785H91.6v9.506H86.042V9.573c-.262.27-.466.473-.619.612a4.877,4.877,0,0,0-.423.342V7.613A6.905,6.905,0,0,0,86.61,5.2a7.285,7.285,0,0,0,.663-2.914H85V.38ZM87.914,13.572H89.8V7.781H87.914ZM101.754.38V2.332h-1.136V6.761h1.136V8.677h-1.136v6.971H98.505V8.677H96.08a9.557,9.557,0,0,1-.881,4.371,5.828,5.828,0,0,1-2.666,2.608V12.982a3.285,3.285,0,0,0,1.115-1.559,8.108,8.108,0,0,0,.379-2.746H92.743V6.761h1.282V2.332h-1.3V.38ZM96.1,6.761h2.4V2.332H96.1Z" transform="translate(-23.083 -0.103)" fill="#40210f"/>
</svg>
