<svg xmlns="http://www.w3.org/2000/svg" width="77.735" height="33.257" viewBox="0 0 77.735 33.257"><path d="M1112.8-291.748c-6.071,0-12.143-.041-18.214.019-2.461.024-4.3-.827-5.271-3.131-.25-.59-.658-.708-1.16-.927a22.828,22.828,0,0,1-14.128-18.469c-1.067-7.19,6.671-12.544,14.1-10.151,1.667.537,3.179,1.382,4.935.279.39-.245,1.048-.083,1.583-.083q18.215,0,36.429,0c.357,0,.79-.128,1.059.026,2.044,1.17,3.873.146,5.828-.357a10.707,10.707,0,0,1,11.108,3.028c2.959,3.156,3.176,6.994,1.711,10.807-2.585,6.725-6.511,12.372-13.691,14.981-.548.2-.659.6-.866,1.018a4.967,4.967,0,0,1-4.851,2.971C1125.18-291.766,1118.99-291.748,1112.8-291.748Z" transform="translate(-1073.927 324.986)" fill="#ff909f"/><path d="M1163.961-288.493c-.148-.917-.073-1.976-1.343-1.987-.968-.009-1.333.638-1.314,1.533.017.805-.591.579-1,.58q-15.791.015-31.582-.005c-.354,0-.949.253-1-.378-.081-1-.355-1.806-1.536-1.729-1.079.07-1.063,1.092-1.262,1.913a2.157,2.157,0,0,1-1.6-2.355q-.007-11.111,0-22.221a2.034,2.034,0,0,1,.418-1.5c.28-.291.612-.691.953-.726.451-.046.341.515.427.83a1.157,1.157,0,0,0,1.3.96,1.142,1.142,0,0,0,1.205-1.087c-.006-1.085.616-1.039,1.371-1.038q15.523.016,31.047,0c.775,0,1.371-.016,1.323,1.068-.029.644.52,1.047,1.2,1.06a1.169,1.169,0,0,0,1.279-.99c.069-.3-.155-.786.381-.834.466-.042.725.347,1,.653a2.561,2.561,0,0,1,.486,1.843q0,10.933.007,21.866A2.32,2.32,0,0,1,1163.961-288.493Z" transform="translate(-1105.652 319.026)" fill="#fdfdfd"/><path d="M1093.552-293.681a14.143,14.143,0,0,1-6.064-4.18c-3.022-3.333-5.549-6.962-6.122-11.572a6.62,6.62,0,0,1,3.285-6.954,8.822,8.822,0,0,1,8.681-.406c.349.159.613.322.574.769C1093.273-308.641,1093.927-301.237,1093.552-293.681Z" transform="translate(-1078.659 320.331)" fill="#fefefe"/><path d="M1248.973-293.738c0-5.718,0-11.278,0-16.839a17.339,17.339,0,0,0-.074-4.247c-.457-1.759.459-2.162,1.736-2.5a8.554,8.554,0,0,1,8.6,2c2.4,2.281,2.494,5.184,1.545,8.078a24.056,24.056,0,0,1-8.709,12.04A7.425,7.425,0,0,1,1248.973-293.738Z" transform="translate(-1186.253 320.315)" fill="#fdfdfd"/><path d="M1156.947-272.918q6.067,0,12.133,0c1.007,0,2.041.043,2.023,1.38-.016,1.239-1.024,1.273-1.947,1.273q-12.222.006-24.444.007c-.979,0-1.912-.2-1.863-1.376.048-1.146.994-1.29,1.965-1.287C1148.859-272.909,1152.9-272.918,1156.947-272.918Z" transform="translate(-1118.202 291.541)" fill="#ff909f"/><path d="M1157.065-305.789c3.985,0,7.971.005,11.956,0,1,0,2.064-.01,2.083,1.314.019,1.36-1.089,1.327-2.064,1.327q-12.046,0-24.091,0c-.982,0-2.1.008-2.1-1.3,0-1.278,1.068-1.338,2.081-1.335C1148.975-305.78,1153.02-305.789,1157.065-305.789Z" transform="translate(-1118.203 312.657)" fill="#ff909f"/><path d="M1156.854-286.61c-3.983,0-7.965-.01-11.947.007-1.012,0-2.07-.029-2.058-1.331.012-1.192,1.011-1.233,1.964-1.231q12.215.02,24.43,0c.962,0,1.9.053,1.86,1.31-.041,1.234-1,1.253-1.945,1.249C1165.056-286.618,1160.955-286.61,1156.854-286.61Z" transform="translate(-1118.203 301.974)" fill="#ff909f"/><path d="M1157.058-256.288q5.973,0,11.946,0c.936,0,2.091-.194,2.114,1.224.021,1.368-1.048,1.321-2.04,1.32q-12.036-.013-24.071,0c-.983,0-2.1.058-2.14-1.24-.036-1.314,1.066-1.315,2.066-1.312C1148.975-256.28,1153.016-256.288,1157.058-256.288Z" transform="translate(-1118.214 280.858)" fill="#ff909f"/><path d="M1130.777-304.477c.047,1.056-.027,2.187-1.393,2.164-1.275-.02-1.278-1.135-1.261-2.106,0-.117,0-.234,0-.351-.008-1,.094-2.067,1.383-1.988C1130.883-306.673,1130.8-305.49,1130.777-304.477Z" transform="translate(-1108.741 313.278)" fill="#ff909f"/><path d="M1128.138-274.013c.028-.732-.114-1.961,1.376-1.915,1.314.041,1.274,1.156,1.276,2.133,0,1.025.105,2.254-1.3,2.285C1128.06-271.479,1128.134-272.713,1128.138-274.013Z" transform="translate(-1108.751 293.472)" fill="#ff909f"/><path d="M1130.792-258.275c-.005,1.024.061,2.221-1.4,2.163-1.483-.059-1.22-1.329-1.245-2.3s-.049-2.09,1.3-2.083C1130.892-260.486,1130.8-259.3,1130.792-258.275Z" transform="translate(-1108.753 283.556)" fill="#ff909f"/><path d="M1128.116-288.995c.05-1-.173-2.245,1.308-2.275,1.31-.027,1.382,1.036,1.353,2.039-.03,1.045.208,2.349-1.4,2.335C1128-286.908,1128.177-288.086,1128.116-288.995Z" transform="translate(-1108.738 303.327)" fill="#ff909f"/><path d="M1229.529-304.618c-.051-.972-.065-2.069,1.213-2.118,1.447-.055,1.368,1.129,1.349,2.146,0,.117-.007.234,0,.35.065.942-.047,1.946-1.2,1.945C1229.365-302.3,1229.5-303.555,1229.529-304.618Z" transform="translate(-1173.876 313.263)" fill="#ff909f"/><path d="M1232.091-288.962c-.045.842.257,2.1-1.294,2.079-1.356-.018-1.286-1.124-1.271-2.085.016-.982-.229-2.235,1.238-2.3C1232.274-291.327,1232.084-290.084,1232.091-288.962Z" transform="translate(-1173.88 303.324)" fill="#ff909f"/><path d="M1231.947-273.8c-.035.8.2,1.714-.838,2.123a1.082,1.082,0,0,1-1.5-.553,3.9,3.9,0,0,1,.143-3.4,1.067,1.067,0,0,1,1.433-.345C1232.174-275.523,1231.909-274.6,1231.947-273.8Z" transform="translate(-1173.732 293.585)" fill="#ff909f"/><path d="M1232.092-258.327c-.025.971.248,2.217-1.287,2.206-1.357-.01-1.288-1.115-1.271-2.084.017-.984-.234-2.241,1.225-2.3C1232.238-260.572,1232.122-259.354,1232.092-258.327Z" transform="translate(-1173.886 283.567)" fill="#ff909f"/></svg>