<svg xmlns="http://www.w3.org/2000/svg" width="39.732" height="32.767" viewBox="0 0 39.732 32.767"><g transform="translate(-134.62 -339.482)"><g transform="translate(134.923 339.758)"><path d="M168.312,367.214h-29.9a.677.677,0,0,1-.678-.678V352.373a.678.678,0,0,1,1.356,0v13.485h28.546V352.373a.678.678,0,1,1,1.356,0v14.163A.677.677,0,0,1,168.312,367.214Z" transform="translate(-133.797 -334.972)" fill="#f196a0" stroke="#f196a0" stroke-width="0.5"/><path d="M173.371,355.672a.674.674,0,0,1-.413-.142l-18.472-14.238-18.472,14.238a.678.678,0,0,1-.827-1.075L154.073,339.9a.679.679,0,0,1,.828,0l18.885,14.558a.679.679,0,0,1-.415,1.216Z" transform="translate(-134.923 -339.758)" fill="#f196a0" stroke="#f196a0" stroke-width="0.5"/><path d="M160.825,346.791a.678.678,0,0,1-.678-.678v-4.437H155.8v.9a.678.678,0,0,1-1.356,0V341a.677.677,0,0,1,.678-.678h5.7a.677.677,0,0,1,.678.678v5.115A.677.677,0,0,1,160.825,346.791Z" transform="translate(-127.099 -339.532)" fill="#f196a0" stroke="#f196a0" stroke-width="0.5"/><path d="M150.069,366.665h-7.722a.677.677,0,0,1-.678-.678V353.741a.677.677,0,0,1,.678-.678h7.722a.677.677,0,0,1,.678.678v12.246A.677.677,0,0,1,150.069,366.665Zm-7.044-1.356h6.366v-10.89h-6.366Z" transform="translate(-132.219 -334.424)" fill="#f196a0" stroke="#f196a0" stroke-width="0.5"/></g><path d="M157.259,356.183h-4.871a.678.678,0,0,1-.678-.678v-4.871a.679.679,0,0,1,.678-.678h4.871a.678.678,0,0,1,.678.678V355.5A.677.677,0,0,1,157.259,356.183Zm-4.193-1.356h3.515v-3.515h-3.515Z" transform="translate(6.729 4.088)" fill="#f196a0"/></g></svg>