<svg xmlns="http://www.w3.org/2000/svg" width="21.547" height="18.981" viewBox="0 0 21.547 18.981"><path d="M.859,0h0a.86.86,0,0,1,.86.86V2.8a.859.859,0,0,1-.859.859h0A.859.859,0,0,1,0,2.8V.859A.859.859,0,0,1,.859,0Z" transform="translate(3.474)" fill="#a8a8a8"/><path d="M1146.158,515.6h-1.667v.838a1.28,1.28,0,0,1-1.28,1.28h-.141a1.28,1.28,0,0,1-1.28-1.28V515.6h-10.216v.838a1.28,1.28,0,0,1-1.28,1.28h-.141a1.28,1.28,0,0,1-1.28-1.28V515.6h-1.7a1.28,1.28,0,0,0-1.28,1.28v14.294a1.28,1.28,0,0,0,1.28,1.28h18.987a1.28,1.28,0,0,0,1.28-1.28V516.885A1.28,1.28,0,0,0,1146.158,515.6Zm-.427,14.72a.32.32,0,0,1-.32.32h-17.494a.32.32,0,0,1-.32-.32V519.871a.32.32,0,0,1,.32-.32h17.494a.32.32,0,0,1,.32.32Z" transform="translate(-1125.891 -513.478)" fill="#a8a8a8"/><path d="M.859,0h0a.859.859,0,0,1,.859.859V2.8a.859.859,0,0,1-.859.859h0A.859.859,0,0,1,0,2.8V.859A.859.859,0,0,1,.859,0Z" transform="translate(16.391)" fill="#a8a8a8"/><path d="M1181.673,582.255a.29.29,0,0,1-.243.32h-2.507a.29.29,0,0,1-.243-.32V580.2a.289.289,0,0,1,.243-.32h2.507a.29.29,0,0,1,.243.32Z" transform="translate(-1173.614 -571.588)" fill="#a8a8a8"/><path d="M1225.082,582.4a.29.29,0,0,1-.243.32h-2.507a.29.29,0,0,1-.243-.32v-2.053a.29.29,0,0,1,.243-.32h2.507a.289.289,0,0,1,.243.32Z" transform="translate(-1212.857 -571.717)" fill="#a8a8a8"/><path d="M1268.49,582.4a.29.29,0,0,1-.243.32h-2.507a.29.29,0,0,1-.243-.32v-2.053a.29.29,0,0,1,.243-.32h2.507a.29.29,0,0,1,.243.32Z" transform="translate(-1252.1 -571.717)" fill="#a8a8a8"/><path d="M1181.673,626.737a.29.29,0,0,1-.243.32h-2.507a.289.289,0,0,1-.243-.32v-2.052a.289.289,0,0,1,.243-.32h2.507a.29.29,0,0,1,.243.32Z" transform="translate(-1173.614 -611.801)" fill="#a8a8a8"/><path d="M1225.082,626.881a.29.29,0,0,1-.243.32h-2.507a.29.29,0,0,1-.243-.32v-2.052a.29.29,0,0,1,.243-.32h2.507a.289.289,0,0,1,.243.32Z" transform="translate(-1212.857 -611.931)" fill="#a8a8a8"/><path d="M1268.49,626.881a.29.29,0,0,1-.243.32h-2.507a.29.29,0,0,1-.243-.32v-2.052a.29.29,0,0,1,.243-.32h2.507a.289.289,0,0,1,.243.32Z" transform="translate(-1252.1 -611.931)" fill="#a8a8a8"/></svg>