<svg xmlns="http://www.w3.org/2000/svg" width="32.97" height="31.242" viewBox="0 0 32.97 31.242">
  <g id="グループ_736" data-name="グループ 736" transform="translate(-567.214 -350.491)">
    <path id="パス_138" data-name="パス 138" d="M600.184,495.643a2.392,2.392,0,0,0-2.389-2.389H569.6a2.392,2.392,0,0,0-2.389,2.389v2.45a2.376,2.376,0,0,0,2.389,2.357h.289v12.017a2.392,2.392,0,0,0,2.389,2.389h22.867a2.376,2.376,0,0,0,2.357-2.389V500.45h.289a2.376,2.376,0,0,0,2.389-2.357v-2.45Zm-13.3,2.511v-2.6h10.906a.108.108,0,0,1,.094.094v2.45c0,.028-.041.061-.094.061Zm-17.285,0c-.053,0-.093-.033-.093-.061v-2.45a.108.108,0,0,1,.093-.093h10.906v2.6Zm13.2-2.6h1.788v17.01h-1.788Zm-2.3,4.9v12.11h-8.228a.108.108,0,0,1-.093-.094V500.45Zm14.7,12.017c0,.053-.033.094-.061.094h-8.26V500.45h8.321Z" transform="translate(0 -133.123)" fill="#f196a0"/>
    <path id="パス_139" data-name="パス 139" d="M655.7,357.4l.015.017a8.134,8.134,0,0,0,5.6,2.326l.186,0a1.013,1.013,0,0,0-.051-2.025,6.072,6.072,0,0,1-4.308-1.734,1.682,1.682,0,0,1-.153-2.126,2.148,2.148,0,0,1,1.915-.879,4.58,4.58,0,0,1,3.144,1.868,4.671,4.671,0,0,1,.785,3.615,1.013,1.013,0,1,0,1.987.392,6.7,6.7,0,0,0-1.126-5.189,6.588,6.588,0,0,0-4.546-2.7l-.019,0-.019,0a4.181,4.181,0,0,0-3.77,1.719l0,0,0,0a3.69,3.69,0,0,0,.347,4.7Z" transform="translate(-81.539 -0.42)" fill="#f196a0"/>
    <path id="パス_140" data-name="パス 140" d="M817.173,359.248a1.014,1.014,0,0,0,.995-1.209,4.654,4.654,0,0,1,3.938-5.513,2.171,2.171,0,0,1,1.937.887,1.732,1.732,0,0,1-.175,2.162,6.059,6.059,0,0,1-4.323,1.675,1.013,1.013,0,0,0-.051,2.025l.2,0a8.1,8.1,0,0,0,5.606-2.268l.015-.016.016-.015a3.765,3.765,0,0,0,.37-4.733l0,0,0,0a4.2,4.2,0,0,0-3.793-1.727l-.019,0-.019,0a6.68,6.68,0,0,0-5.681,7.917A1.013,1.013,0,0,0,817.173,359.248Z" transform="translate(-232.039)" fill="#f196a0"/>
  </g>
</svg>
