<svg id="グループ_7" data-name="グループ 7" xmlns="http://www.w3.org/2000/svg" width="22.749" height="23.162" viewBox="0 0 22.749 23.162">
  <path id="パス_7" data-name="パス 7" d="M2997,1226.382a.765.765,0,0,0,.767.77h.023a.766.766,0,0,0,.769-.77v-2.613a.769.769,0,0,0-.541-.736.757.757,0,0,0-.228-.034h-.023a.752.752,0,0,0-.227.034.768.768,0,0,0-.54.736Z" transform="translate(-2983.705 -1223)" fill="#fff"/>
  <rect id="長方形_15" data-name="長方形 15" width="1.299" height="3.898" rx="0.65" transform="translate(4.692 0.072)" fill="#fff"/>
  <g id="グループ_6" data-name="グループ 6" transform="translate(0 2.904)">
    <g id="グループ_5" data-name="グループ 5" transform="translate(0 0)">
      <path id="パス_8" data-name="パス 8" d="M1780.448,1494.864a1.867,1.867,0,0,0-1.862-1.864h-2.075v.478a1.427,1.427,0,0,1-1.425,1.426h-.023a1.425,1.425,0,0,1-1.423-1.426V1493h-5.819v.478a1.43,1.43,0,0,1-1.428,1.426h-.024a1.422,1.422,0,0,1-1.42-1.426V1493h-2.08a1.871,1.871,0,0,0-1.867,1.864v13.772a1.872,1.872,0,0,0,1.867,1.865h10.427a5.652,5.652,0,0,1-.435-1.452h-10.375v-11.983h16.522v5.242a5.686,5.686,0,0,1,1.441.285Z" transform="translate(-1761 -1493)" fill="#fff"/>
    </g>
  </g>
  <rect id="長方形_16" data-name="長方形 16" width="3.327" height="3.327" transform="translate(3.128 8.796)" fill="#fff"/>
  <rect id="長方形_17" data-name="長方形 17" width="3.327" height="3.327" transform="translate(3.128 13.799)" fill="#fff"/>
  <rect id="長方形_18" data-name="長方形 18" width="3.327" height="3.327" transform="translate(8.146 13.799)" fill="#fff"/>
  <rect id="長方形_19" data-name="長方形 19" width="3.327" height="3.327" transform="translate(8.146 8.796)" fill="#fff"/>
  <rect id="長方形_20" data-name="長方形 20" width="3.327" height="3.327" transform="translate(13.165 8.796)" fill="#fff"/>
  <path id="パス_9" data-name="パス 9" d="M2924.645,2419.937a5.144,5.144,0,1,0,5.144,5.144A5.144,5.144,0,0,0,2924.645,2419.937Zm0,9.162a4.018,4.018,0,1,1,4.019-4.019A4.023,4.023,0,0,1,2924.645,2429.1Z" transform="translate(-2907.04 -2407.062)" fill="#fff"/>
  <path id="パス_10" data-name="パス 10" d="M3348.2,2607.417h-2.245v-2.636a.4.4,0,0,0-.8,0v3.383a.4.4,0,0,0,.547.374c.012,0,.024,0,.036,0h2.467a.563.563,0,0,0,0-1.125Z" transform="translate(-3328.111 -2589.52)" fill="#fff"/>
</svg>
