<svg xmlns="http://www.w3.org/2000/svg" width="64.544" height="46.241"><path d="M51.644 46.237c-2.558 0-5.117.011-7.675 0-3.4-.019-5.063-1.636-5.071-4.987q-.027-11.292 0-22.584c.007-3.258 1.654-4.941 4.941-4.9 1.279.016 1.731-.217 1.68-1.612-.094-2.54 1.035-3.577 3.685-3.673.77-.028 1.339.024 1.355-1.074s-.52-1.1-1.308-1.086c-1.541.036-3.17.263-3.826-1.733-.163-.5-.738-.244-1.114-.245-3.748-.02-7.5.013-11.245-.03-.885-.01-1.453.165-1.719 1.1-.211.74-.745 1.316-1.6.989-.94-.361-.784-1.11-.556-1.935.513-1.856 1.516-2.644 3.577-2.549 3.859.176 7.732.059 11.6.04.5 0 1.132.252 1.475-.318C46.887-.093 48.56-.017 50.251.02c1.487.033 2.976-.028 4.462.018 2.175.066 3.288 1.394 3.242 3.784-.038 1.972-.71 2.473-3.194 2.534-.6.015-1.356-.376-1.8.313a1.237 1.237 0 0 0 1.055 1.8c3.116.223 3.894.964 3.912 4 .006.99.251 1.274 1.274 1.288 3.964.055 5.337 1.491 5.34 5.41q.006 10.936 0 21.873c0 3.6-1.6 5.188-5.219 5.2-2.562.006-5.121-.002-7.679-.003Z" fill="#ff909f"/><path d="M20.468 23.758c3.713 0 7.03-.016 10.348.005 2.578.016 3.666 1 3.886 3.572a.952.952 0 0 0 .706.994 3.214 3.214 0 0 1 2.156 3.173 3.093 3.093 0 0 1-2.108 3.012c-.675.254-.691.591-.734 1.164-.151 2-1.092 3.13-2.972 3.414-.834.126-1.129.227-1.144 1.212a3.142 3.142 0 0 1-3.38 3.164c-6.37.037-12.742.094-19.11-.02a8.036 8.036 0 0 1-8.1-8.352c.141-1.947.034-3.913.019-5.871a7.023 7.023 0 0 1 4.535-7.018c4.607-1.88 9.339-3.464 14.048-5.086a3.157 3.157 0 0 1 3.993 1.773c.787 1.674.205 3.158-2.143 4.864ZM27.407 10.389a1.2 1.2 0 0 1 1.2 1.082 1.107 1.107 0 0 1-1.146 1.27 1.09 1.09 0 0 1-1.194-1.049c-.052-.754.423-1.164 1.14-1.303ZM29.81 8.672a1.1 1.1 0 0 1-1.189 1.252 1.07 1.07 0 0 1-1.1-1.128 1.067 1.067 0 0 1 1.013-1.2 1.088 1.088 0 0 1 1.276 1.076ZM27.324 14.177c.044.887-.359 1.332-1.013 1.366a1.065 1.065 0 0 1-1.231-1.175 1.051 1.051 0 0 1 1.125-1.1.983.983 0 0 1 1.119.909ZM25.017 18.378a1.087 1.087 0 0 1-1.164-1.1 1.054 1.054 0 0 1 1.052-1.186 1.088 1.088 0 0 1 1.255 1.169c.008.716-.483 1.032-1.143 1.117ZM25.032 8.265c-.183.7-.565 1.166-1.353 1.078a1.062 1.062 0 0 1-1.026-1.191 1.088 1.088 0 0 1 1.317-1.067c.705.065.98.542 1.062 1.18ZM32.4 10.715a1.136 1.136 0 0 1 1.171 1.263 1.069 1.069 0 0 1-1.188 1.028 1.076 1.076 0 0 1-1.148-1.072 1.119 1.119 0 0 1 1.165-1.219ZM34.45 14.669c-.061.908-.518 1.344-1.248 1.314a1.067 1.067 0 0 1-1.071-1.156 1.082 1.082 0 0 1 1.048-1.18 1.149 1.149 0 0 1 1.271 1.022ZM35.325 17.829c-.124.585-.419 1.126-1.219 1.1a1.083 1.083 0 0 1-1.115-1.1 1.071 1.071 0 0 1 1.2-1.182c.668-.014 1.051.421 1.134 1.182ZM22.265 9.535c-.081.727-.382 1.19-1.093 1.222a1.052 1.052 0 0 1-1.2-1.188 1.016 1.016 0 0 1 1.149-1.06 1.107 1.107 0 0 1 1.144 1.026ZM18.433 12.181a1.062 1.062 0 0 1-1.209-1.011 1.03 1.03 0 0 1 1.122-1.245 1 1 0 0 1 1.114 1.079 1.058 1.058 0 0 1-1.027 1.177ZM32.654 8.989a1.031 1.031 0 0 1-1.157 1.061 1.047 1.047 0 0 1-1.08-1.289c.063-.725.579-.987 1.238-.945.719.047 1 .514.999 1.173ZM27.695 6.776a1.027 1.027 0 0 1-1.027 1.138 1.038 1.038 0 0 1-1.22-1.149 1.009 1.009 0 0 1 1.109-1.084 1.031 1.031 0 0 1 1.138 1.095Z" fill="#ff909f"/><path d="M62.23 30.105c0 3.677.01 7.355 0 11.032-.008 2.116-.63 2.723-2.777 2.727q-7.768.013-15.537 0c-2.042 0-2.7-.632-2.706-2.623q-.021-11.3 0-22.6c0-1.874.7-2.547 2.6-2.552q7.858-.021 15.716 0c2.067 0 2.7.671 2.708 2.8.002 3.742-.005 7.479-.004 11.216Z" fill="#fefefe"/><path d="M51.622 13.726c-.713 0-1.425-.007-2.138 0-.882.009-1.755.233-1.685-1.261.061-1.311.458-1.8 1.781-1.723 1.539.09 3.089.069 4.631.007 1.327-.053 1.342.746 1.4 1.721.06 1.036-.32 1.356-1.316 1.272-.886-.075-1.782-.015-2.673-.016Z" fill="#fcfcfc"/><path d="M51.627 3.992c-.952 0-1.9.01-2.856-.006-.38-.006-.885.15-.916-.51-.029-.6.169-1.139.821-1.154q3.033-.072 6.068 0c.647.016.86.545.832 1.15-.03.653-.53.509-.914.514-1.009.016-2.02.007-3.035.006Z" fill="#f3f3f3"/><path d="M17.367 41.103c-2.916 0-5.833.033-8.748-.008-4-.056-6.292-2.383-6.293-6.326 0-1.719-.006-3.439 0-5.158a5.53 5.53 0 0 1 3.814-5.613c4.173-1.538 8.379-2.984 12.567-4.483.72-.257 1.463-.49 1.756.47.283.927-.461 1.2-1.168 1.451-2.014.706-4.02 1.432-6.033 2.142-.758.267-1.548.563-1.355 1.561s1.064.932 1.85.931q8.034-.008 16.068 0c.357 0 .714.008 1.071 0 .711-.017 1.388.1 1.414.967.029.973-.7 1.1-1.479 1.1h-9.105c-.357 0-.715-.015-1.071 0-.85.043-2-.261-2.014 1.091-.016 1.482 1.218 1.162 2.113 1.169 3.095.024 6.189.009 9.284.009 1.19 0 2.38.005 3.571 0 .756 0 1.521.047 1.534 1.036.014 1.023-.774 1.015-1.52 1.014q-5.981-.01-11.962-.008c-.476 0-.952.011-1.428 0-.836-.021-1.629.081-1.651 1.139s.773 1.191 1.606 1.191c3.154 0 6.309-.046 9.461.031.938.023 2.551-.624 2.6.944.047 1.695-1.606.956-2.517.983-3.092.09-6.188.039-9.283.039-.856 0-1.819-.035-1.848 1.133-.031 1.287.992 1.253 1.912 1.253 1.964 0 3.928-.012 5.891.006.8.007 1.887-.231 1.858 1.019-.026 1.107-1.044.912-1.79.915-3.035.009-6.07.001-9.105.002Z" fill="#fefefe"/></svg>