<svg xmlns="http://www.w3.org/2000/svg" width="28.514" height="23.536"><g fill="#fff"><path d="M24.929 23.286H3.584a.483.483 0 0 1-.484-.484v-10.11a.484.484 0 0 1 .968 0v9.621h20.377v-9.626a.484.484 0 0 1 .968 0v10.11a.483.483 0 0 1-.484.489ZM27.737 11.631a.481.481 0 0 1-.295-.1L14.256 1.367 1.068 11.53a.484.484 0 0 1-.59-.767L13.959.371a.485.485 0 0 1 .591 0l13.481 10.392a.484.484 0 0 1-.3.868ZM24.368 5.452a.484.484 0 0 1-.484-.484V1.801h-3.1v.639a.484.484 0 1 1-.968 0V1.313A.483.483 0 0 1 20.3.829h4.068a.483.483 0 0 1 .484.484v3.651a.483.483 0 0 1-.484.488Z" stroke="#fff" stroke-width=".5"/><path d="M13.033 23.286H7.521a.483.483 0 0 1-.484-.484V14.06a.483.483 0 0 1 .484-.484h5.512a.483.483 0 0 1 .484.484v8.742a.483.483 0 0 1-.484.484Zm-5.028-.968h4.544v-7.774H8.005Z" stroke="#fff" stroke-width=".5"/><path d="M21.039 14.913h-3.477a.484.484 0 0 1-.484-.484v-3.476a.484.484 0 0 1 .484-.484h3.477a.484.484 0 0 1 .484.484v3.477a.483.483 0 0 1-.484.483Zm-2.993-.968h2.509v-2.509h-2.509Z"/></g></svg>