<svg xmlns="http://www.w3.org/2000/svg" width="28.473" height="23.536" viewBox="0 0 28.473 23.536"><g transform="translate(-388.086 -86.386)"><path d="M413.016,109.672H391.671a.484.484,0,0,1-.484-.484V99.076a.484.484,0,1,1,.968,0V108.7h20.377V99.076a.484.484,0,1,1,.968,0v10.112A.484.484,0,0,1,413.016,109.672Z" fill="#fff" stroke="#fff" stroke-width="0.5"/><path d="M415.824,98.016a.481.481,0,0,1-.3-.1L402.344,87.751,389.158,97.915a.484.484,0,0,1-.591-.767l13.481-10.392a.485.485,0,0,1,.591,0L416.12,97.148a.484.484,0,0,1-.3.868Z" fill="#fff" stroke="#fff" stroke-width="0.5"/><path d="M392.232,91.837a.484.484,0,0,1-.484-.484V87.7a.484.484,0,0,1,.484-.484H396.3a.484.484,0,0,1,.484.484v1.123a.484.484,0,1,1-.968,0v-.639h-3.105v3.167A.483.483,0,0,1,392.232,91.837Z" fill="#fff" stroke="#fff" stroke-width="0.5"/><path d="M409.079,109.672h-5.512a.484.484,0,0,1-.484-.484v-8.743a.483.483,0,0,1,.484-.484h5.512a.483.483,0,0,1,.484.484v8.743A.484.484,0,0,1,409.079,109.672Zm-5.028-.968H408.6v-7.775h-4.544Z" fill="#fff" stroke="#fff" stroke-width="0.5"/></g></svg>