<svg xmlns="http://www.w3.org/2000/svg" width="28.514" height="23.536" viewBox="0 0 28.514 23.536"><g transform="translate(-134.632 -339.487)"><path d="M159.561,362.773H138.216a.483.483,0,0,1-.484-.484v-10.11a.484.484,0,0,1,.968,0V361.8h20.377v-9.626a.484.484,0,0,1,.968,0v10.11A.483.483,0,0,1,159.561,362.773Z" fill="#fff" stroke="#fff" stroke-width="0.5"/><path d="M162.369,351.118a.481.481,0,0,1-.295-.1l-13.186-10.164L135.7,351.017a.484.484,0,0,1-.59-.767l13.481-10.392a.485.485,0,0,1,.591,0l13.481,10.392a.484.484,0,0,1-.3.868Z" fill="#fff" stroke="#fff" stroke-width="0.5"/><path d="M159,344.939a.484.484,0,0,1-.484-.484v-3.167h-3.1v.639a.484.484,0,1,1-.968,0V340.8a.483.483,0,0,1,.484-.484H159a.483.483,0,0,1,.484.484v3.651A.483.483,0,0,1,159,344.939Z" fill="#fff" stroke="#fff" stroke-width="0.5"/><path d="M147.665,362.773h-5.512a.483.483,0,0,1-.484-.484v-8.742a.483.483,0,0,1,.484-.484h5.512a.483.483,0,0,1,.484.484v8.742A.483.483,0,0,1,147.665,362.773Zm-5.028-.968h4.544v-7.774h-4.544Z" fill="#fff" stroke="#fff" stroke-width="0.5"/><path d="M155.671,354.4h-3.477a.484.484,0,0,1-.484-.484V350.44a.484.484,0,0,1,.484-.484h3.477a.484.484,0,0,1,.484.484v3.477A.483.483,0,0,1,155.671,354.4Zm-2.993-.968h2.509v-2.509h-2.509Z" fill="#fff"/></g></svg>