<svg xmlns="http://www.w3.org/2000/svg" width="23.763" height="22.517" viewBox="0 0 23.763 22.517"><g transform="translate(-567.214 -350.491)"><path d="M590.977,494.976a1.724,1.724,0,0,0-1.722-1.722H568.936a1.724,1.724,0,0,0-1.722,1.722v1.766a1.712,1.712,0,0,0,1.722,1.7h.209V507.1a1.724,1.724,0,0,0,1.722,1.722h16.481a1.712,1.712,0,0,0,1.7-1.722V498.44h.209a1.712,1.712,0,0,0,1.722-1.7v-1.766Zm-9.583,1.81v-1.877h7.861a.078.078,0,0,1,.067.067v1.766c0,.02-.029.044-.067.044Zm-12.458,0c-.038,0-.067-.024-.067-.044v-1.766a.077.077,0,0,1,.067-.067H576.8v1.877Zm9.515-1.877h1.288v12.26h-1.288ZM576.8,498.44v8.728h-5.93a.078.078,0,0,1-.067-.067V498.44Zm10.595,8.661c0,.038-.023.067-.044.067h-5.953V498.44h6Z" transform="translate(0 -135.815)" fill="#fff"/><path d="M655.412,355.6l.011.012a5.863,5.863,0,0,0,4.038,1.677l.134,0a.73.73,0,0,0-.037-1.46,4.377,4.377,0,0,1-3.1-1.25,1.212,1.212,0,0,1-.11-1.532,1.548,1.548,0,0,1,1.381-.634,3.3,3.3,0,0,1,2.266,1.346,3.367,3.367,0,0,1,.566,2.606.73.73,0,1,0,1.432.283,4.833,4.833,0,0,0-.812-3.74,4.748,4.748,0,0,0-3.276-1.945h-.014l-.014,0a3.013,3.013,0,0,0-2.717,1.239l0,0,0,0a2.659,2.659,0,0,0,.25,3.385Z" transform="translate(-83.188 -0.429)" fill="#fff"/><path d="M816.861,356.8a.731.731,0,0,0,.717-.872,3.354,3.354,0,0,1,2.839-3.974,1.565,1.565,0,0,1,1.4.639,1.248,1.248,0,0,1-.126,1.558,4.367,4.367,0,0,1-3.116,1.208.73.73,0,0,0-.037,1.46l.143,0a5.841,5.841,0,0,0,4.04-1.634l.011-.012.011-.011a2.713,2.713,0,0,0,.267-3.411l0,0,0,0a3.031,3.031,0,0,0-2.734-1.245l-.014,0h-.014a4.815,4.815,0,0,0-4.094,5.706A.73.73,0,0,0,816.861,356.8Z" transform="translate(-236.731)" fill="#fff"/></g></svg>