<svg xmlns="http://www.w3.org/2000/svg" width="47.65" height="47.494" viewBox="0 0 47.65 47.494"><path d="M641.043-338.144a5.1,5.1,0,0,1-1.551,3.411q-8.28,8.231-16.549,16.472a9.3,9.3,0,0,1-5.923,2.583,10.6,10.6,0,0,0-6.748,3.243q-4.534,4.54-9.1,9.051c-2.062,2.041-4.615,2.168-6.486.347-1.829-1.781-1.723-4.405.32-6.466q4.454-4.494,8.967-8.93a10.707,10.707,0,0,0,3.387-6.852,10.4,10.4,0,0,1,3.321-6.681c5.176-5.074,10.278-10.224,15.421-15.331,2.64-2.622,5.235-2.6,7.9.041,1.815,1.8,3.6,3.623,5.434,5.4A5.147,5.147,0,0,1,641.043-338.144Z" transform="translate(-593.393 349.25)" fill="#ff909f"/><path d="M614.46-297.146c-3.324-2.9-3.323-2.9-.4-5.809,1.261-1.257,2.53-2.506,3.779-3.775a11.663,11.663,0,0,0,3.519-7.195,9.623,9.623,0,0,1,3.184-6.322c4.072-3.9,8.043-7.9,11.982-11.935.841-.861,1.244-.752,2.012.041,2.642,2.727,5.349,5.391,8.073,8.037.644.625.662.989,0,1.636-4.444,4.368-8.84,8.785-13.265,13.172a6.454,6.454,0,0,1-4.109,1.917,14.021,14.021,0,0,0-9.448,4.768C618.062-300.739,616.234-298.959,614.46-297.146Z" transform="translate(-605.291 338.672)" fill="#fefefe"/><path d="M699.945-334.127a2.881,2.881,0,0,1-1.022,1.992c-.484.512-.8.693-1.4.083q-4.234-4.316-8.56-8.54c-.567-.555-.51-.856.032-1.386,1.37-1.34,2.827-1.458,4.21-.126,1.963,1.892,3.863,3.848,5.8,5.765A2.893,2.893,0,0,1,699.945-334.127Z" transform="translate(-654.53 345.264)" fill="#fdfdfd"/><path d="M601.908-236.94c.883.909,1.892,1.833,2.74,2.886.28.347-2.167,2.3-2.91,2.253a2.178,2.178,0,0,1-2.191-2.137C599.471-234.646,601.245-236.957,601.908-236.94Z" transform="translate(-597.345 277.101)" fill="#fafafa"/><path d="M663.416-315.858a1.371,1.371,0,0,1,1.063.556c.68.658,1.3,1.382,2.021,1.994,1.174,1,1.125,1.839,0,2.91q-4.044,3.861-7.92,7.9c-1.092,1.139-1.878,1.055-2.927-.033-3.45-3.582-3.4-2.668-.1-6.013,2.163-2.189,4.353-4.351,6.539-6.516C662.47-315.43,662.785-315.912,663.416-315.858Z" transform="translate(-631.735 327.802)" fill="#ff909f"/></svg>