<svg xmlns="http://www.w3.org/2000/svg" width="39.732" height="32.767"><g fill="#f196a0"><g stroke="#f196a0" stroke-width=".5"><path d="M34.818 32.518h-29.9a.677.677 0 0 1-.678-.678V17.677a.678.678 0 0 1 1.356 0v13.485h28.546V17.677a.678.678 0 1 1 1.356 0V31.84a.677.677 0 0 1-.68.678ZM38.751 16.19a.674.674 0 0 1-.413-.142L19.866 1.81 1.394 16.048a.678.678 0 0 1-.827-1.075L19.453.418a.679.679 0 0 1 .828 0l18.885 14.558a.679.679 0 0 1-.415 1.216ZM34.029 7.535a.678.678 0 0 1-.678-.678V2.42h-4.347v.9a.678.678 0 0 1-1.356 0V1.744a.677.677 0 0 1 .678-.678h5.7a.677.677 0 0 1 .678.678v5.115a.677.677 0 0 1-.675.676Z"/><path d="M18.153 32.517h-7.722a.677.677 0 0 1-.678-.678V19.593a.677.677 0 0 1 .678-.678h7.722a.677.677 0 0 1 .678.678v12.246a.677.677 0 0 1-.678.678Zm-7.044-1.356h6.366v-10.89h-6.366Z"/></g><path d="M29.368 20.789h-4.871a.678.678 0 0 1-.678-.678V15.24a.679.679 0 0 1 .678-.678h4.871a.678.678 0 0 1 .678.678v4.866a.677.677 0 0 1-.678.683Zm-4.193-1.356h3.515v-3.515h-3.515Z"/></g></svg>