<svg xmlns="http://www.w3.org/2000/svg" width="45.292" height="18.429" viewBox="0 0 45.292 18.429"><g transform="translate(-4981.811 -1540.975)"><path d="M5104.592,1619.823l0,.007-.005.007a7.8,7.8,0,0,0,.72,9.806l.024.023c.008.008.016.018.024.026a17.6,17.6,0,0,0,12.179,4.913q.218,0,.435-.005a1.6,1.6,0,0,0-.04-3.2h-.041a14.379,14.379,0,0,1-10.28-3.982,4.59,4.59,0,0,1-.408-5.744,5.561,5.561,0,0,1,4.99-2.256,11.249,11.249,0,0,1,9.485,13.3,1.6,1.6,0,1,0,3.137.619,14.446,14.446,0,0,0-12.236-17.1l-.03,0-.031,0A8.766,8.766,0,0,0,5104.592,1619.823Z" transform="translate(-121.369 -75.229)" fill="#f196a0"/><path d="M5324.561,1634.633a1.6,1.6,0,0,0,1.57-1.908,11.249,11.249,0,0,1,9.485-13.3,5.558,5.558,0,0,1,4.99,2.256,4.589,4.589,0,0,1-.407,5.744,14.379,14.379,0,0,1-10.281,3.982,1.6,1.6,0,0,0-.081,3.2c.145,0,.29.005.435.005a17.6,17.6,0,0,0,12.179-4.913l.024-.026.025-.023a7.8,7.8,0,0,0,.719-9.806l-.005-.007,0-.007a8.77,8.77,0,0,0-7.919-3.581l-.03,0-.03,0a14.446,14.446,0,0,0-12.235,17.1A1.6,1.6,0,0,0,5324.561,1634.633Z" transform="translate(-317.517 -75.228)" fill="#f196a0"/></g></svg>